<mxfile host="app.diagrams.net" agent="Mozilla/5.0 (Windows NT 10.0; Win64; x64) AppleWebKit/537.36 (KHTML, like Gecko) Chrome/137.0.0.0 Safari/537.36 OPR/121.0.0.0" version="28.2.0">
  <diagram name="Página-1" id="um1fkUw_YQAbQyXrjvc_">
    <mxGraphModel grid="1" page="1" gridSize="10" guides="1" tooltips="1" connect="1" arrows="1" fold="1" pageScale="1" pageWidth="827" pageHeight="1169" math="0" shadow="0">
      <root>
        <mxCell id="0" />
        <mxCell id="1" parent="0" />
        <mxCell id="PIAi-dtqHLIWXzFcPzFo-5" style="edgeStyle=orthogonalEdgeStyle;rounded=0;orthogonalLoop=1;jettySize=auto;html=1;endArrow=none;endFill=0;" edge="1" parent="1" source="PIAi-dtqHLIWXzFcPzFo-1" target="PIAi-dtqHLIWXzFcPzFo-4">
          <mxGeometry relative="1" as="geometry" />
        </mxCell>
        <mxCell id="PIAi-dtqHLIWXzFcPzFo-15" style="edgeStyle=orthogonalEdgeStyle;rounded=0;orthogonalLoop=1;jettySize=auto;html=1;entryX=0.5;entryY=1;entryDx=0;entryDy=0;" edge="1" parent="1" source="PIAi-dtqHLIWXzFcPzFo-1" target="PIAi-dtqHLIWXzFcPzFo-14">
          <mxGeometry relative="1" as="geometry" />
        </mxCell>
        <mxCell id="PIAi-dtqHLIWXzFcPzFo-17" style="edgeStyle=orthogonalEdgeStyle;rounded=0;orthogonalLoop=1;jettySize=auto;html=1;entryX=0.5;entryY=1;entryDx=0;entryDy=0;" edge="1" parent="1" source="PIAi-dtqHLIWXzFcPzFo-1" target="PIAi-dtqHLIWXzFcPzFo-16">
          <mxGeometry relative="1" as="geometry" />
        </mxCell>
        <mxCell id="PIAi-dtqHLIWXzFcPzFo-19" style="edgeStyle=orthogonalEdgeStyle;rounded=0;orthogonalLoop=1;jettySize=auto;html=1;entryX=0.5;entryY=1;entryDx=0;entryDy=0;" edge="1" parent="1" source="PIAi-dtqHLIWXzFcPzFo-1" target="PIAi-dtqHLIWXzFcPzFo-18">
          <mxGeometry relative="1" as="geometry" />
        </mxCell>
        <mxCell id="PIAi-dtqHLIWXzFcPzFo-1" value="clinica" style="rounded=0;whiteSpace=wrap;html=1;" vertex="1" parent="1">
          <mxGeometry x="170" y="290" width="120" height="60" as="geometry" />
        </mxCell>
        <mxCell id="PIAi-dtqHLIWXzFcPzFo-2" value="possui" style="rhombus;whiteSpace=wrap;html=1;" vertex="1" parent="1">
          <mxGeometry x="360" y="280" width="80" height="80" as="geometry" />
        </mxCell>
        <mxCell id="PIAi-dtqHLIWXzFcPzFo-11" style="edgeStyle=orthogonalEdgeStyle;rounded=0;orthogonalLoop=1;jettySize=auto;html=1;entryX=0.5;entryY=0;entryDx=0;entryDy=0;endArrow=none;endFill=0;" edge="1" parent="1" source="PIAi-dtqHLIWXzFcPzFo-4" target="PIAi-dtqHLIWXzFcPzFo-9">
          <mxGeometry relative="1" as="geometry" />
        </mxCell>
        <mxCell id="PIAi-dtqHLIWXzFcPzFo-24" style="edgeStyle=orthogonalEdgeStyle;rounded=0;orthogonalLoop=1;jettySize=auto;html=1;" edge="1" parent="1" source="PIAi-dtqHLIWXzFcPzFo-4" target="PIAi-dtqHLIWXzFcPzFo-20">
          <mxGeometry relative="1" as="geometry" />
        </mxCell>
        <mxCell id="PIAi-dtqHLIWXzFcPzFo-25" style="edgeStyle=orthogonalEdgeStyle;rounded=0;orthogonalLoop=1;jettySize=auto;html=1;entryX=0.5;entryY=1;entryDx=0;entryDy=0;" edge="1" parent="1" source="PIAi-dtqHLIWXzFcPzFo-4" target="PIAi-dtqHLIWXzFcPzFo-23">
          <mxGeometry relative="1" as="geometry" />
        </mxCell>
        <mxCell id="PIAi-dtqHLIWXzFcPzFo-26" style="edgeStyle=orthogonalEdgeStyle;rounded=0;orthogonalLoop=1;jettySize=auto;html=1;entryX=0.5;entryY=1;entryDx=0;entryDy=0;" edge="1" parent="1" source="PIAi-dtqHLIWXzFcPzFo-4" target="PIAi-dtqHLIWXzFcPzFo-22">
          <mxGeometry relative="1" as="geometry" />
        </mxCell>
        <mxCell id="PIAi-dtqHLIWXzFcPzFo-4" value="medico" style="rounded=0;whiteSpace=wrap;html=1;" vertex="1" parent="1">
          <mxGeometry x="500" y="290" width="120" height="60" as="geometry" />
        </mxCell>
        <mxCell id="PIAi-dtqHLIWXzFcPzFo-12" style="edgeStyle=orthogonalEdgeStyle;rounded=0;orthogonalLoop=1;jettySize=auto;html=1;entryX=0;entryY=0.5;entryDx=0;entryDy=0;endArrow=none;endFill=0;" edge="1" parent="1" source="PIAi-dtqHLIWXzFcPzFo-6" target="PIAi-dtqHLIWXzFcPzFo-9">
          <mxGeometry relative="1" as="geometry" />
        </mxCell>
        <mxCell id="PIAi-dtqHLIWXzFcPzFo-37" style="edgeStyle=orthogonalEdgeStyle;rounded=0;orthogonalLoop=1;jettySize=auto;html=1;" edge="1" parent="1" source="PIAi-dtqHLIWXzFcPzFo-6" target="PIAi-dtqHLIWXzFcPzFo-30">
          <mxGeometry relative="1" as="geometry" />
        </mxCell>
        <mxCell id="PIAi-dtqHLIWXzFcPzFo-38" style="edgeStyle=orthogonalEdgeStyle;rounded=0;orthogonalLoop=1;jettySize=auto;html=1;entryX=0.5;entryY=1;entryDx=0;entryDy=0;" edge="1" parent="1" source="PIAi-dtqHLIWXzFcPzFo-6" target="PIAi-dtqHLIWXzFcPzFo-32">
          <mxGeometry relative="1" as="geometry" />
        </mxCell>
        <mxCell id="PIAi-dtqHLIWXzFcPzFo-39" style="edgeStyle=orthogonalEdgeStyle;rounded=0;orthogonalLoop=1;jettySize=auto;html=1;entryX=0.5;entryY=0;entryDx=0;entryDy=0;" edge="1" parent="1" source="PIAi-dtqHLIWXzFcPzFo-6" target="PIAi-dtqHLIWXzFcPzFo-29">
          <mxGeometry relative="1" as="geometry" />
        </mxCell>
        <mxCell id="PIAi-dtqHLIWXzFcPzFo-40" style="edgeStyle=orthogonalEdgeStyle;rounded=0;orthogonalLoop=1;jettySize=auto;html=1;entryX=0.5;entryY=0;entryDx=0;entryDy=0;" edge="1" parent="1" source="PIAi-dtqHLIWXzFcPzFo-6" target="PIAi-dtqHLIWXzFcPzFo-28">
          <mxGeometry relative="1" as="geometry" />
        </mxCell>
        <mxCell id="PIAi-dtqHLIWXzFcPzFo-6" value="paciente" style="rounded=0;whiteSpace=wrap;html=1;" vertex="1" parent="1">
          <mxGeometry x="160" y="570" width="120" height="60" as="geometry" />
        </mxCell>
        <mxCell id="PIAi-dtqHLIWXzFcPzFo-7" value="realiza" style="rhombus;whiteSpace=wrap;html=1;" vertex="1" parent="1">
          <mxGeometry x="520" y="420" width="80" height="80" as="geometry" />
        </mxCell>
        <mxCell id="PIAi-dtqHLIWXzFcPzFo-13" value="" style="edgeStyle=orthogonalEdgeStyle;rounded=0;orthogonalLoop=1;jettySize=auto;html=1;endArrow=none;endFill=0;" edge="1" parent="1" source="PIAi-dtqHLIWXzFcPzFo-9" target="PIAi-dtqHLIWXzFcPzFo-10">
          <mxGeometry relative="1" as="geometry" />
        </mxCell>
        <mxCell id="PIAi-dtqHLIWXzFcPzFo-41" style="edgeStyle=orthogonalEdgeStyle;rounded=0;orthogonalLoop=1;jettySize=auto;html=1;entryX=0.5;entryY=0;entryDx=0;entryDy=0;" edge="1" parent="1" source="PIAi-dtqHLIWXzFcPzFo-9" target="PIAi-dtqHLIWXzFcPzFo-33">
          <mxGeometry relative="1" as="geometry" />
        </mxCell>
        <mxCell id="PIAi-dtqHLIWXzFcPzFo-43" style="edgeStyle=orthogonalEdgeStyle;rounded=0;orthogonalLoop=1;jettySize=auto;html=1;entryX=0.5;entryY=1;entryDx=0;entryDy=0;" edge="1" parent="1" source="PIAi-dtqHLIWXzFcPzFo-9" target="PIAi-dtqHLIWXzFcPzFo-36">
          <mxGeometry relative="1" as="geometry" />
        </mxCell>
        <mxCell id="PIAi-dtqHLIWXzFcPzFo-44" style="edgeStyle=orthogonalEdgeStyle;rounded=0;orthogonalLoop=1;jettySize=auto;html=1;entryX=0.5;entryY=0;entryDx=0;entryDy=0;" edge="1" parent="1" source="PIAi-dtqHLIWXzFcPzFo-9" target="PIAi-dtqHLIWXzFcPzFo-34">
          <mxGeometry relative="1" as="geometry" />
        </mxCell>
        <mxCell id="PIAi-dtqHLIWXzFcPzFo-9" value="consulta" style="rounded=0;whiteSpace=wrap;html=1;" vertex="1" parent="1">
          <mxGeometry x="500" y="570" width="120" height="60" as="geometry" />
        </mxCell>
        <mxCell id="PIAi-dtqHLIWXzFcPzFo-10" value="possui" style="rhombus;whiteSpace=wrap;html=1;" vertex="1" parent="1">
          <mxGeometry x="360" y="560" width="80" height="80" as="geometry" />
        </mxCell>
        <mxCell id="PIAi-dtqHLIWXzFcPzFo-14" value="Nome" style="ellipse;whiteSpace=wrap;html=1;" vertex="1" parent="1">
          <mxGeometry x="100" y="210" width="90" height="40" as="geometry" />
        </mxCell>
        <mxCell id="PIAi-dtqHLIWXzFcPzFo-16" value="Endereço" style="ellipse;whiteSpace=wrap;html=1;" vertex="1" parent="1">
          <mxGeometry x="260" y="210" width="90" height="40" as="geometry" />
        </mxCell>
        <mxCell id="PIAi-dtqHLIWXzFcPzFo-18" value="Telefone" style="ellipse;whiteSpace=wrap;html=1;" vertex="1" parent="1">
          <mxGeometry x="185" y="170" width="90" height="40" as="geometry" />
        </mxCell>
        <mxCell id="PIAi-dtqHLIWXzFcPzFo-20" value="Nome" style="ellipse;whiteSpace=wrap;html=1;" vertex="1" parent="1">
          <mxGeometry x="450" y="210" width="90" height="40" as="geometry" />
        </mxCell>
        <mxCell id="PIAi-dtqHLIWXzFcPzFo-22" value="Especialidade" style="ellipse;whiteSpace=wrap;html=1;" vertex="1" parent="1">
          <mxGeometry x="515" y="150" width="90" height="40" as="geometry" />
        </mxCell>
        <mxCell id="PIAi-dtqHLIWXzFcPzFo-23" value="CRM" style="ellipse;whiteSpace=wrap;html=1;" vertex="1" parent="1">
          <mxGeometry x="570" y="210" width="90" height="40" as="geometry" />
        </mxCell>
        <mxCell id="PIAi-dtqHLIWXzFcPzFo-28" value="Telefone" style="ellipse;whiteSpace=wrap;html=1;" vertex="1" parent="1">
          <mxGeometry x="175" y="670" width="90" height="40" as="geometry" />
        </mxCell>
        <mxCell id="PIAi-dtqHLIWXzFcPzFo-29" value="Endereço" style="ellipse;whiteSpace=wrap;html=1;" vertex="1" parent="1">
          <mxGeometry x="30" y="620" width="90" height="40" as="geometry" />
        </mxCell>
        <mxCell id="PIAi-dtqHLIWXzFcPzFo-30" value="CPF" style="ellipse;whiteSpace=wrap;html=1;" vertex="1" parent="1">
          <mxGeometry x="175" y="480" width="90" height="40" as="geometry" />
        </mxCell>
        <mxCell id="PIAi-dtqHLIWXzFcPzFo-32" value="Nome" style="ellipse;whiteSpace=wrap;html=1;" vertex="1" parent="1">
          <mxGeometry x="30" y="500" width="90" height="40" as="geometry" />
        </mxCell>
        <mxCell id="PIAi-dtqHLIWXzFcPzFo-33" value="Data" style="ellipse;whiteSpace=wrap;html=1;" vertex="1" parent="1">
          <mxGeometry x="515" y="680" width="90" height="40" as="geometry" />
        </mxCell>
        <mxCell id="PIAi-dtqHLIWXzFcPzFo-34" value="Horário" style="ellipse;whiteSpace=wrap;html=1;" vertex="1" parent="1">
          <mxGeometry x="660" y="640" width="90" height="40" as="geometry" />
        </mxCell>
        <mxCell id="PIAi-dtqHLIWXzFcPzFo-36" value="Valor" style="ellipse;whiteSpace=wrap;html=1;" vertex="1" parent="1">
          <mxGeometry x="660" y="520" width="90" height="40" as="geometry" />
        </mxCell>
        <mxCell id="PIAi-dtqHLIWXzFcPzFo-46" value="CLINICA MEDICA" style="ellipse;whiteSpace=wrap;html=1;" vertex="1" parent="1">
          <mxGeometry x="320" y="30" width="120" height="80" as="geometry" />
        </mxCell>
      </root>
    </mxGraphModel>
  </diagram>
</mxfile>
